<?xml version="1.0" standalone="no"?>
<!DOCTYPE svg PUBLIC "-//W3C//DTD SVG 20010904//EN"
 "http://www.w3.org/TR/2001/REC-SVG-20010904/DTD/svg10.dtd">
<svg version="1.0" xmlns="http://www.w3.org/2000/svg"
 width="820.000000pt" height="500.000000pt" viewBox="0 0 820.000000 500.000000"
 preserveAspectRatio="xMidYMid meet">
<metadata>
Created by potrace 1.16, written by Peter Selinger 2001-2019
</metadata>
<g transform="translate(0.000000,500.000000) scale(0.100000,-0.100000)"
fill="#000000" stroke="none">
<path d="M4599 4491 c-49 -10 -123 -55 -148 -90 -39 -54 -19 -110 35 -97 32 8
96 70 119 116 9 19 27 45 38 58 22 24 19 25 -44 13z"/>
<path d="M4028 4094 c-5 -4 -8 -14 -8 -22 0 -13 -85 -136 -117 -169 -24 -26
-54 -125 -47 -157 15 -71 49 -107 124 -133 44 -16 76 -16 120 0 44 15 118 69
145 105 11 15 55 62 98 105 82 83 61 86 -31 4 -26 -23 -73 -60 -105 -81 -51
-35 -64 -40 -120 -40 -56 -1 -67 2 -104 31 -50 40 -76 91 -67 130 4 15 34 66
67 114 32 47 57 94 56 103 -2 10 -7 14 -11 10z"/>
<path d="M3722 3684 c-18 -38 -43 -87 -55 -109 -27 -49 -77 -196 -77 -227 0
-13 -6 -43 -14 -68 -36 -119 -37 -396 -1 -505 7 -22 18 -65 25 -95 20 -87 46
-161 73 -210 13 -25 39 -79 57 -120 30 -71 61 -136 79 -170 5 -8 18 -33 29
-55 11 -22 30 -58 42 -80 13 -22 47 -85 78 -140 30 -55 69 -122 87 -150 17
-27 39 -66 49 -85 9 -19 21 -42 26 -50 52 -84 80 -197 80 -327 0 -115 -20
-179 -93 -298 -123 -201 -260 -286 -463 -289 -85 -1 -91 -2 -67 -14 20 -11 62
-13 177 -9 159 5 186 11 305 71 84 44 220 212 221 275 0 9 7 25 15 35 8 11 15
26 15 34 0 8 6 28 14 45 63 141 35 467 -58 672 -37 80 -51 110 -56 115 -6 6
-185 368 -205 415 -7 17 -21 53 -31 80 -10 28 -24 61 -31 75 -7 14 -13 33 -13
43 0 9 -6 43 -14 75 -41 161 -53 418 -27 532 27 113 87 225 166 307 44 46 47
51 24 46 -32 -6 -130 12 -172 32 -70 33 -129 109 -146 189 -6 27 -8 24 -39
-40z"/>
</g>
</svg>
